<?xml version="1.0" standalone="no"?>
<!DOCTYPE svg PUBLIC "-//W3C//DTD SVG 20010904//EN"
 "http://www.w3.org/TR/2001/REC-SVG-20010904/DTD/svg10.dtd">
<svg version="1.0" xmlns="http://www.w3.org/2000/svg"
 width="310.000000pt" height="310.000000pt" viewBox="0 0 310.000000 310.000000"
 preserveAspectRatio="xMidYMid meet">
<metadata>
Created by potrace 1.11, written by Peter Selinger 2001-2013
</metadata>
<g transform="translate(0.000000,310.000000) scale(0.100000,-0.100000)"
fill="#000000" stroke="none">
<path d="M1405 2167 c-27 -7 -49 -17 -48 -22 1 -6 29 -13 62 -16 81 -8 179
-57 230 -115 60 -69 85 -140 85 -249 0 -88 -2 -97 -49 -207 -9 -23 25 -24 86
-3 102 36 164 100 185 192 28 122 -41 278 -154 347 -120 72 -279 102 -397 73z"/>
<path d="M1180 2048 c-61 -26 -89 -45 -150 -107 -76 -77 -126 -155 -141 -219
-17 -79 17 -83 60 -7 67 118 178 193 271 182 99 -12 170 -72 170 -144 0 -44
-9 -63 -31 -63 -19 0 -23 9 -19 44 3 31 -20 71 -52 91 -71 41 -199 9 -213 -55
-17 -79 47 -244 120 -309 84 -73 237 -68 340 11 97 75 147 177 147 300 -1 194
-128 308 -341 308 -73 -1 -97 -5 -161 -32z"/>
<path d="M1970 1991 c0 -6 6 -24 14 -39 8 -15 20 -56 27 -90 26 -125 -33 -250
-150 -320 l-34 -21 47 -22 c65 -30 119 -113 97 -148 -8 -13 -15 -12 -48 2 -21
9 -63 23 -93 31 -55 15 -100 50 -113 89 -5 12 -17 17 -42 17 -27 0 -49 -11
-95 -49 -33 -26 -83 -55 -111 -65 -99 -32 -230 -16 -298 36 -13 10 -27 15 -32
12 -15 -9 -10 -138 6 -185 8 -24 25 -64 38 -89 26 -53 157 -187 210 -214 l37
-19 45 48 c25 27 45 51 45 53 0 3 -27 30 -60 60 -89 79 -157 189 -143 230 10
28 41 12 58 -30 37 -92 127 -184 243 -247 39 -21 52 -22 115 -17 75 7 144 -4
239 -41 46 -17 49 -17 84 2 83 45 153 141 154 212 0 26 -6 36 -29 47 -63 33
-110 109 -137 218 -21 88 -19 127 9 193 38 87 37 172 -3 251 -29 59 -80 119
-80 95z"/>
<path d="M1814 1445 c22 -17 56 -20 56 -6 0 11 -25 21 -53 21 -22 -1 -22 -1
-3 -15z"/>
</g>
</svg>
